<?xml version="1.0" encoding="UTF-8"?>
<svg id="Layer_2" data-name="Layer 2" xmlns="http://www.w3.org/2000/svg" xmlns:xlink="http://www.w3.org/1999/xlink" viewBox="0 0 85.89 100.69">
  <defs>
    <style>
      .cls-1 {
        fill: url(#linear-gradient);
        stroke-width: 0px;
      }
    </style>
    <linearGradient id="linear-gradient" x1="42.95" y1="17.58" x2="42.95" y2="103.47" gradientUnits="userSpaceOnUse">
      <stop offset="0" stop-color="#efb71b"/>
      <stop offset=".23" stop-color="#fcd500"/>
      <stop offset=".57" stop-color="#adcf36"/>
      <stop offset=".85" stop-color="#77be44"/>
    </linearGradient>
  </defs>
  <g id="Layer_1-2" data-name="Layer 1">
    <path class="cls-1" d="M82.03,50.26c-1.14.57-7.01,2.12-7.03.16-.08-1.26.1-2.24,1.2-3.16,5.21-4.47,9.36-10.84,9.69-17.84.07-2.7-3.5-2.83-4.24-.53-2.18,3.66-5.35,6.12-9.25,7.71-1.37.55-1.83-1.59-2.62-2.34-.28-.43-.06-.69.32-.99,3.13-2.45,5.41-5.57,6.21-9.46.83-3.27.06-6.62-.7-9.86-.27-3.27-.61-6.61.84-9.75.32-.67.97-1.15.99-2.03-.5-4.87-5.71-.28-7.28,1.64-2.94,2.99-4.46,6.66-5.41,10.73-.87,3.74-3.08,6.78-6.27,9.03-.9.64-1.7.18-2.48-.13-4.28-1.72-8.62-2.73-13.05-2.75-4.44.02-8.77,1.03-13.05,2.75-.78.31-1.58.77-2.48.13-3.19-2.26-5.4-5.3-6.27-9.03-.95-4.07-2.47-7.74-5.41-10.73-1.57-1.92-6.78-6.51-7.28-1.64.01.88.66,1.36.99,2.03,1.46,3.13,1.12,6.47.84,9.75-.76,3.24-1.52,6.59-.7,9.86.8,3.89,3.08,7.01,6.21,9.46.38.3.6.56.32.99-.79.76-1.25,2.89-2.62,2.34-3.9-1.59-7.07-4.04-9.25-7.71C3.5,26.58-.06,26.71,0,29.41c.33,7,4.48,13.38,9.69,17.84,1.11.92,1.29,1.91,1.2,3.16-.02,1.96-5.9.41-7.03-.16-2.34-1.6-4.45,1.14-2.76,3.44,2.75,4.01,6.16,7.08,11.11,8.06.47.09.87.26,1.1.81,2.41,5.04,6.18,9.27,9.01,14.08,1.6,2.03-4.82-.71-7.89,5.29-1.52,2.76-1.62,5.77-.62,8.67,1.05,3.04-.91,6.26-4.43,5.86-1.52-.17-2.56-.72-3.14-2.12-1.39-2.47,2.92-3.97.92-6.25-5.21-2.72-8.23,9.22-.39,12.12,6.93,2.33,13.72-4.47,10.69-11.33-2.03-6.13,5.63-10.11,9.29-4.9,3.02,6.33,9.6,9.78,16.2,9.92,6.59-.14,13.18-3.59,16.2-9.92,3.66-5.21,11.32-1.23,9.29,4.9-3.03,6.86,3.76,13.66,10.69,11.33,7.85-2.89,4.82-14.84-.39-12.12-2,2.29,2.31,3.78.92,6.25-.58,1.4-1.62,1.95-3.14,2.12-3.52.4-5.48-2.83-4.43-5.86,1-2.9.9-5.91-.62-8.67-3.07-6-9.49-3.26-7.89-5.29,2.83-4.81,6.59-9.04,9.01-14.08.23-.55.63-.72,1.1-.81,4.95-.97,8.36-4.05,11.11-8.06,1.7-2.3-.41-5.04-2.76-3.44ZM32.32,58.52c-1.16.74-2.46.66-3.54-.15-2.39-1.8-4.73-3.67-7.05-5.57-2.77-2.67.82-6.64,3.78-4.75,2.42,1.84,4.8,3.73,7.15,5.66,1.61,1.1,1.42,3.93-.35,4.81ZM38.87,81c-2.88,2.9-6.26-5.01-2.98-5.32,2.65-.25,2.73,1.97,3.49,3.17.46.72.2,1.54-.51,2.15ZM47.02,81c-.72-.61-.97-1.43-.51-2.15.77-1.2.85-3.42,3.49-3.17,3.28.31-.1,8.22-2.98,5.32ZM64.15,52.81c-2.32,1.89-4.65,3.77-7.05,5.57-1.08.81-2.37.89-3.54.15-1.77-.88-1.96-3.71-.35-4.81,2.35-1.92,4.73-3.82,7.15-5.66,2.95-1.89,6.55,2.08,3.78,4.75Z"/>
  </g>
</svg>